<svg xmlns="http://www.w3.org/2000/svg" xmlns:xlink="http://www.w3.org/1999/xlink" version="1.1" x="0px" y="0px" viewBox="0 0 100 125" enable-background="new 0 0 100 100" xml:space="preserve"><path class='logo' fill="#000000" d="M72.8,47.6c-0.4-0.8-1.3-1.3-2.2-1.3s-1.7,0.5-2.2,1.3l-3.4,6L52.7,32.4c-0.4-0.8-1.3-1.3-2.2-1.3s-1.7,0.5-2.2,1.3  L27.5,68.6l-4-7c-0.4-0.8-1.3-1.3-2.2-1.3s-1.7,0.5-2.2,1.3L5.3,85.6c-0.4,0.8-0.4,1.7,0,2.5s1.3,1.3,2.2,1.3h85  c0.9,0,1.7-0.5,2.2-1.3s0.4-1.7,0-2.5L72.8,47.6z M21.3,67.9l4,7c0.4,0.8,1.3,1.3,2.2,1.3s1.7-0.5,2.2-1.3l20.9-36.2l1.8,3.2  L45.5,51c-0.4,0.6-0.6,1.3-0.5,2c0.1,0.7,0.6,1.3,1.2,1.7l4.6,2.8l-9.5,5.4c-0.8,0.5-1.3,1.3-1.3,2.2s0.6,1.8,1.4,2.2l15.8,7.9  l-16.4,9.2H11.8L21.3,67.9z M51,84.3l12.7-7.1c0.8-0.5,1.3-1.3,1.3-2.2c0-0.9-0.6-1.8-1.4-2.2l-15.8-7.9l9.1-5.2  c0.8-0.4,1.3-1.2,1.3-2.1c0-0.9-0.4-1.7-1.2-2.2l-5.9-3.6l4-5.3l7.7,13.4c0.4,0.8,1.3,1.3,2.2,1.3s1.7-0.5,2.2-1.3l3.4-6l17.6,30.4  H51z"/><text x="0" y="115" fill="#000000" font-size="5px" font-weight="bold" font-family="'Helvetica Neue', Helvetica, Arial-Unicode, Arial, Sans-serif">Created by Arthur Shlain</text><text x="0" y="120" fill="#FFFFFF" font-size="5px" font-weight="bold" font-family="'Helvetica Neue', Helvetica, Arial-Unicode, Arial, Sans-serif">from the Noun Project</text></svg>